<?xml version="1.0" encoding="iso-8859-1"?>
<!-- Generator: Adobe Illustrator 19.0.0, SVG Export Plug-In . SVG Version: 6.00 Build 0)  -->
<svg version="1.1" id="Capa_1" xmlns="http://www.w3.org/2000/svg" xmlns:xlink="http://www.w3.org/1999/xlink" x="0px" y="0px"
	 viewBox="0 0 512 512" style="enable-background:new 0 0 512 512;" xml:space="preserve">
<g>
	<g>
		<path d="M352,128H160c-5.888,0-10.667,4.779-10.667,10.667s4.779,10.667,10.667,10.667h192c5.888,0,10.667-4.779,10.667-10.667
			S357.888,128,352,128z"/>
	</g>
</g>
<g>
	<g>
		<path d="M456.064,85.333c-10.581,0-20.651,3.051-29.397,8.512V32c0-17.643-14.357-32-32-32H32C14.357,0,0,14.357,0,32v448
			c0,17.643,14.357,32,32,32h362.667c17.643,0,32-14.357,32-32V249.728l39.467-39.467c0.021-0.021,0.043-0.021,0.064-0.043
			c0.021-0.021,0.021-0.043,0.043-0.064l29.376-29.376C506.197,170.219,512,156.16,512,141.227
			C512,110.4,486.912,85.333,456.064,85.333z M405.333,480c0,5.888-4.8,10.667-10.667,10.667H32
			c-5.867,0-10.667-4.779-10.667-10.667v-53.333h23.296C49.045,439.061,60.779,448,74.667,448c17.643,0,32-14.357,32-32
			c0-17.643-14.357-32-32-32c-13.888,0-25.621,8.939-30.037,21.333H21.333V320h23.296c4.416,12.395,16.149,21.333,30.037,21.333
			c17.643,0,32-14.357,32-32c0-17.643-14.357-32-32-32c-13.888,0-25.621,8.939-30.037,21.333H21.333v-85.333h23.296
			c4.416,12.395,16.149,21.333,30.037,21.333c17.643,0,32-14.357,32-32c0-17.643-14.357-32-32-32
			c-13.888,0-25.621,8.939-30.037,21.333H21.333v-85.333h23.296C49.045,119.061,60.779,128,74.667,128c17.643,0,32-14.357,32-32
			c0-17.643-14.357-32-32-32c-13.888,0-25.621,8.939-30.037,21.333H21.333V32c0-5.888,4.8-10.667,10.667-10.667h362.667
			c5.867,0,10.667,4.779,10.667,10.667v80.917l-18.219,18.219l-82.197,82.197H160c-5.888,0-10.667,4.779-10.667,10.667
			s4.779,10.667,10.667,10.667h123.584l-64,64H160c-5.888,0-10.667,4.779-10.667,10.667S154.112,320,160,320h50.325l-16,64H160
			c-5.888,0-10.667,4.779-10.667,10.667s4.779,10.667,10.667,10.667h42.667c0.853,0,1.728-0.107,2.581-0.341l85.333-21.333
			c0.235-0.064,0.405-0.277,0.64-0.363c1.408-0.469,2.667-1.152,3.755-2.112c0.171-0.149,0.405-0.149,0.555-0.32l109.803-109.803
			V480z M64,416c0-5.888,4.8-10.667,10.667-10.667c5.867,0,10.667,4.779,10.667,10.667c0,5.888-4.8,10.667-10.667,10.667
			C68.8,426.667,64,421.888,64,416z M64,309.333c0-5.888,4.8-10.667,10.667-10.667c5.867,0,10.667,4.779,10.667,10.667
			S80.533,320,74.667,320C68.8,320,64,315.221,64,309.333z M64,202.667C64,196.779,68.8,192,74.667,192
			c5.867,0,10.667,4.779,10.667,10.667s-4.8,10.667-10.667,10.667C68.8,213.333,64,208.555,64,202.667z M64,96
			c0-5.888,4.8-10.667,10.667-10.667c5.867,0,10.667,4.779,10.667,10.667s-4.8,10.667-10.667,10.667C68.8,106.667,64,101.888,64,96z
			 M231.915,321.643c6.891,2.005,17.088,6.443,27.2,16.555s14.571,20.331,16.576,27.2l-58.368,14.613L231.915,321.643z
			 M293.675,352.555c-3.477-8.789-9.259-19.264-19.477-29.44c-10.197-10.197-20.672-15.979-29.44-19.456l72.128-72.128l77.781-77.76
			l48.896,48.896L293.675,352.555z M480.533,165.696l-21.888,21.888l-48.896-48.917l13.803-13.803l8.107-8.107
			c6.507-6.549,15.189-10.133,24.469-10.133c19.051,0,34.56,15.509,34.56,34.603C490.667,150.485,487.061,159.147,480.533,165.696z"
			/>
	</g>
</g>
<g>
</g>
<g>
</g>
<g>
</g>
<g>
</g>
<g>
</g>
<g>
</g>
<g>
</g>
<g>
</g>
<g>
</g>
<g>
</g>
<g>
</g>
<g>
</g>
<g>
</g>
<g>
</g>
<g>
</g>
</svg>
